<svg width="32" height="33" viewBox="0 0 32 33" fill="none" xmlns="http://www.w3.org/2000/svg">
<path d="M16.0001 18.1783L9.46673 24.7116C9.22229 24.9561 8.91118 25.0783 8.5334 25.0783C8.15562 25.0783 7.84451 24.9561 7.60006 24.7116C7.35562 24.4672 7.2334 24.1561 7.2334 23.7783C7.2334 23.4005 7.35562 23.0894 7.60006 22.845L14.1334 16.3116L7.60006 9.7783C7.35562 9.53386 7.2334 9.22275 7.2334 8.84497C7.2334 8.46719 7.35562 8.15608 7.60006 7.91163C7.84451 7.66719 8.15562 7.54497 8.5334 7.54497C8.91118 7.54497 9.22229 7.66719 9.46673 7.91163L16.0001 14.445L22.5334 7.91163C22.7778 7.66719 23.089 7.54497 23.4667 7.54497C23.8445 7.54497 24.1556 7.66719 24.4001 7.91163C24.6445 8.15608 24.7667 8.46719 24.7667 8.84497C24.7667 9.22275 24.6445 9.53386 24.4001 9.7783L17.8667 16.3116L24.4001 22.845C24.6445 23.0894 24.7667 23.4005 24.7667 23.7783C24.7667 24.1561 24.6445 24.4672 24.4001 24.7116C24.1556 24.9561 23.8445 25.0783 23.4667 25.0783C23.089 25.0783 22.7778 24.9561 22.5334 24.7116L16.0001 18.1783Z" fill="#FA1239"/>
</svg>
